%TF.GenerationSoftware,KiCad,Pcbnew,8.0.1*%
%TF.CreationDate,2024-07-23T23:42:04-04:00*%
%TF.ProjectId,PartyTorch-PCB,50617274-7954-46f7-9263-682d5043422e,rev?*%
%TF.SameCoordinates,Original*%
%TF.FileFunction,Legend,Bot*%
%TF.FilePolarity,Positive*%
%FSLAX46Y46*%
G04 Gerber Fmt 4.6, Leading zero omitted, Abs format (unit mm)*
G04 Created by KiCad (PCBNEW 8.0.1) date 2024-07-23 23:42:04*
%MOMM*%
%LPD*%
G01*
G04 APERTURE LIST*
%ADD10C,0.100000*%
%ADD11C,0.150000*%
%ADD12C,0.152400*%
%ADD13C,0.120000*%
%ADD14C,0.000000*%
G04 APERTURE END LIST*
D10*
X133293408Y-104693104D02*
X133026741Y-105074057D01*
X132836265Y-104693104D02*
X132836265Y-105493104D01*
X132836265Y-105493104D02*
X133141027Y-105493104D01*
X133141027Y-105493104D02*
X133217217Y-105455009D01*
X133217217Y-105455009D02*
X133255312Y-105416914D01*
X133255312Y-105416914D02*
X133293408Y-105340723D01*
X133293408Y-105340723D02*
X133293408Y-105226438D01*
X133293408Y-105226438D02*
X133255312Y-105150247D01*
X133255312Y-105150247D02*
X133217217Y-105112152D01*
X133217217Y-105112152D02*
X133141027Y-105074057D01*
X133141027Y-105074057D02*
X132836265Y-105074057D01*
D11*
X125296666Y-111309580D02*
X125344285Y-111357200D01*
X125344285Y-111357200D02*
X125487142Y-111404819D01*
X125487142Y-111404819D02*
X125582380Y-111404819D01*
X125582380Y-111404819D02*
X125725237Y-111357200D01*
X125725237Y-111357200D02*
X125820475Y-111261961D01*
X125820475Y-111261961D02*
X125868094Y-111166723D01*
X125868094Y-111166723D02*
X125915713Y-110976247D01*
X125915713Y-110976247D02*
X125915713Y-110833390D01*
X125915713Y-110833390D02*
X125868094Y-110642914D01*
X125868094Y-110642914D02*
X125820475Y-110547676D01*
X125820475Y-110547676D02*
X125725237Y-110452438D01*
X125725237Y-110452438D02*
X125582380Y-110404819D01*
X125582380Y-110404819D02*
X125487142Y-110404819D01*
X125487142Y-110404819D02*
X125344285Y-110452438D01*
X125344285Y-110452438D02*
X125296666Y-110500057D01*
X124344285Y-111404819D02*
X124915713Y-111404819D01*
X124629999Y-111404819D02*
X124629999Y-110404819D01*
X124629999Y-110404819D02*
X124725237Y-110547676D01*
X124725237Y-110547676D02*
X124820475Y-110642914D01*
X124820475Y-110642914D02*
X124915713Y-110690533D01*
X121456666Y-109989580D02*
X121504285Y-110037200D01*
X121504285Y-110037200D02*
X121647142Y-110084819D01*
X121647142Y-110084819D02*
X121742380Y-110084819D01*
X121742380Y-110084819D02*
X121885237Y-110037200D01*
X121885237Y-110037200D02*
X121980475Y-109941961D01*
X121980475Y-109941961D02*
X122028094Y-109846723D01*
X122028094Y-109846723D02*
X122075713Y-109656247D01*
X122075713Y-109656247D02*
X122075713Y-109513390D01*
X122075713Y-109513390D02*
X122028094Y-109322914D01*
X122028094Y-109322914D02*
X121980475Y-109227676D01*
X121980475Y-109227676D02*
X121885237Y-109132438D01*
X121885237Y-109132438D02*
X121742380Y-109084819D01*
X121742380Y-109084819D02*
X121647142Y-109084819D01*
X121647142Y-109084819D02*
X121504285Y-109132438D01*
X121504285Y-109132438D02*
X121456666Y-109180057D01*
X121075713Y-109180057D02*
X121028094Y-109132438D01*
X121028094Y-109132438D02*
X120932856Y-109084819D01*
X120932856Y-109084819D02*
X120694761Y-109084819D01*
X120694761Y-109084819D02*
X120599523Y-109132438D01*
X120599523Y-109132438D02*
X120551904Y-109180057D01*
X120551904Y-109180057D02*
X120504285Y-109275295D01*
X120504285Y-109275295D02*
X120504285Y-109370533D01*
X120504285Y-109370533D02*
X120551904Y-109513390D01*
X120551904Y-109513390D02*
X121123332Y-110084819D01*
X121123332Y-110084819D02*
X120504285Y-110084819D01*
D10*
X131803332Y-107834895D02*
X132069999Y-107453942D01*
X132260475Y-107834895D02*
X132260475Y-107034895D01*
X132260475Y-107034895D02*
X131955713Y-107034895D01*
X131955713Y-107034895D02*
X131879523Y-107072990D01*
X131879523Y-107072990D02*
X131841428Y-107111085D01*
X131841428Y-107111085D02*
X131803332Y-107187276D01*
X131803332Y-107187276D02*
X131803332Y-107301561D01*
X131803332Y-107301561D02*
X131841428Y-107377752D01*
X131841428Y-107377752D02*
X131879523Y-107415847D01*
X131879523Y-107415847D02*
X131955713Y-107453942D01*
X131955713Y-107453942D02*
X132260475Y-107453942D01*
X131041428Y-107834895D02*
X131498571Y-107834895D01*
X131269999Y-107834895D02*
X131269999Y-107034895D01*
X131269999Y-107034895D02*
X131346190Y-107149180D01*
X131346190Y-107149180D02*
X131422380Y-107225371D01*
X131422380Y-107225371D02*
X131498571Y-107263466D01*
D11*
X126155181Y-105781903D02*
X125345658Y-105781903D01*
X125345658Y-105781903D02*
X125250420Y-105734284D01*
X125250420Y-105734284D02*
X125202801Y-105686665D01*
X125202801Y-105686665D02*
X125155181Y-105591427D01*
X125155181Y-105591427D02*
X125155181Y-105400951D01*
X125155181Y-105400951D02*
X125202801Y-105305713D01*
X125202801Y-105305713D02*
X125250420Y-105258094D01*
X125250420Y-105258094D02*
X125345658Y-105210475D01*
X125345658Y-105210475D02*
X126155181Y-105210475D01*
X126059943Y-104781903D02*
X126107562Y-104734284D01*
X126107562Y-104734284D02*
X126155181Y-104639046D01*
X126155181Y-104639046D02*
X126155181Y-104400951D01*
X126155181Y-104400951D02*
X126107562Y-104305713D01*
X126107562Y-104305713D02*
X126059943Y-104258094D01*
X126059943Y-104258094D02*
X125964705Y-104210475D01*
X125964705Y-104210475D02*
X125869467Y-104210475D01*
X125869467Y-104210475D02*
X125726610Y-104258094D01*
X125726610Y-104258094D02*
X125155181Y-104829522D01*
X125155181Y-104829522D02*
X125155181Y-104210475D01*
X129736181Y-110635598D02*
X129498086Y-110635598D01*
X129593324Y-110873693D02*
X129498086Y-110635598D01*
X129498086Y-110635598D02*
X129593324Y-110397503D01*
X129307610Y-110778455D02*
X129498086Y-110635598D01*
X129498086Y-110635598D02*
X129307610Y-110492741D01*
X128645820Y-110635599D02*
X128883915Y-110635599D01*
X128788677Y-110397504D02*
X128883915Y-110635599D01*
X128883915Y-110635599D02*
X128788677Y-110873694D01*
X129074391Y-110492742D02*
X128883915Y-110635599D01*
X128883915Y-110635599D02*
X129074391Y-110778456D01*
D12*
%TO.C,U3*%
X116666500Y-109829700D02*
X116666500Y-111480700D01*
X116666500Y-111480700D02*
X117705360Y-111480700D01*
X118657860Y-109829700D02*
X117977140Y-109829700D01*
X118929640Y-111480700D02*
X119968500Y-111480700D01*
X119968500Y-111480700D02*
X119968500Y-109829700D01*
X115650500Y-109334400D02*
G75*
G02*
X115396500Y-109334400I-127000J0D01*
G01*
X115396500Y-109334400D02*
G75*
G02*
X115650500Y-109334400I127000J0D01*
G01*
D13*
%TO.C,C1*%
X123290000Y-111457836D02*
X123290000Y-111242164D01*
X124010000Y-111457836D02*
X124010000Y-111242164D01*
%TO.C,C2*%
X121882164Y-110400000D02*
X122097836Y-110400000D01*
X121882164Y-111120000D02*
X122097836Y-111120000D01*
D12*
%TO.C,U4*%
X116666500Y-105779700D02*
X116666500Y-107430700D01*
X116666500Y-107430700D02*
X117705360Y-107430700D01*
X118657860Y-105779700D02*
X117977140Y-105779700D01*
X118929640Y-107430700D02*
X119968500Y-107430700D01*
X119968500Y-107430700D02*
X119968500Y-105779700D01*
X115650500Y-105284400D02*
G75*
G02*
X115396500Y-105284400I-127000J0D01*
G01*
X115396500Y-105284400D02*
G75*
G02*
X115650500Y-105284400I127000J0D01*
G01*
%TO.C,U5*%
X132056500Y-108699700D02*
X132056500Y-110350700D01*
X132056500Y-110350700D02*
X133095360Y-110350700D01*
X134047860Y-108699700D02*
X133367140Y-108699700D01*
X134319640Y-110350700D02*
X135358500Y-110350700D01*
X135358500Y-110350700D02*
X135358500Y-108699700D01*
X131040500Y-108204400D02*
G75*
G02*
X130786500Y-108204400I-127000J0D01*
G01*
X130786500Y-108204400D02*
G75*
G02*
X131040500Y-108204400I127000J0D01*
G01*
D13*
%TO.C,Y1*%
X122500000Y-112705000D02*
X128900000Y-112705000D01*
X122500000Y-117755000D02*
X128900000Y-117755000D01*
X122500000Y-117755000D02*
G75*
G02*
X122500000Y-112705000I0J2525000D01*
G01*
X128900000Y-112705000D02*
G75*
G02*
X128900000Y-117755000I0J-2525000D01*
G01*
%TO.C,R1*%
X131610000Y-106123641D02*
X131610000Y-105816359D01*
X132370000Y-106123641D02*
X132370000Y-105816359D01*
D12*
%TO.C,U2*%
X121933001Y-101342999D02*
X121933001Y-101636859D01*
X121933001Y-108403139D02*
X121933001Y-108696999D01*
X121933001Y-108696999D02*
X122226861Y-108696999D01*
X122226861Y-101342999D02*
X121933001Y-101342999D01*
X128993141Y-108696999D02*
X129287001Y-108696999D01*
X129287001Y-101342999D02*
X128993141Y-101342999D01*
X129287001Y-101636859D02*
X129287001Y-101342999D01*
X129287001Y-108696999D02*
X129287001Y-108403139D01*
D14*
G36*
X120375401Y-107210500D02*
G01*
X120121401Y-107210500D01*
X120121401Y-106829500D01*
X120375401Y-106829500D01*
X120375401Y-107210500D01*
G37*
G36*
X125400502Y-99785399D02*
G01*
X125019502Y-99785399D01*
X125019502Y-99531399D01*
X125400502Y-99531399D01*
X125400502Y-99785399D01*
G37*
G36*
X131098601Y-106410499D02*
G01*
X130844601Y-106410499D01*
X130844601Y-106029499D01*
X131098601Y-106029499D01*
X131098601Y-106410499D01*
G37*
%TD*%
M02*
