M48
; DRILL file {KiCad 8.0.1} date 2024-07-23T23:41:58-0400
; FORMAT={-:-/ absolute / metric / decimal}
; #@! TF.CreationDate,2024-07-23T23:41:58-04:00
; #@! TF.GenerationSoftware,Kicad,Pcbnew,8.0.1
; #@! TF.FileFunction,MixedPlating,1,2
FMAT,2
METRIC
; #@! TA.AperFunction,Plated,PTH,ViaDrill
T1C0.300
; #@! TA.AperFunction,Plated,PTH,ComponentDrill
T2C0.800
; #@! TA.AperFunction,NonPlated,NPTH,ComponentDrill
T3C2.200
%
G90
G05
T1
X116.37Y-109.27
X118.66Y-114.51
X119.02Y-115.51
X119.05Y-112.935
X121.52Y-111.68
X122.829Y-107.37
X124.372Y-113.26
X124.4Y-107.56
X124.4Y-114.6
X124.99Y-105.56
X125.378Y-116.278
X125.445Y-111.795
X125.714Y-106.124
X126.17Y-103.13
X126.17Y-118.23
X127.147Y-106.881
X127.28Y-113.48
X127.58Y-110.62
X127.81Y-105.29
X128.4Y-106.18
X129.66Y-101.41
X129.68Y-100.05
X129.83Y-111.09
X129.89Y-116.2
X130.9Y-110.01
X131.286Y-102.827
X131.67Y-112.3
X132.84Y-107.05
T2
X123.26Y-115.23
X128.14Y-115.23
T3
X133.41Y-113.2
M30
