%TF.GenerationSoftware,KiCad,Pcbnew,8.0.1*%
%TF.CreationDate,2024-07-23T23:42:04-04:00*%
%TF.ProjectId,PartyTorch-PCB,50617274-7954-46f7-9263-682d5043422e,rev?*%
%TF.SameCoordinates,Original*%
%TF.FileFunction,Soldermask,Top*%
%TF.FilePolarity,Negative*%
%FSLAX46Y46*%
G04 Gerber Fmt 4.6, Leading zero omitted, Abs format (unit mm)*
G04 Created by KiCad (PCBNEW 8.0.1) date 2024-07-23 23:42:04*
%MOMM*%
%LPD*%
G01*
G04 APERTURE LIST*
G04 Aperture macros list*
%AMRoundRect*
0 Rectangle with rounded corners*
0 $1 Rounding radius*
0 $2 $3 $4 $5 $6 $7 $8 $9 X,Y pos of 4 corners*
0 Add a 4 corners polygon primitive as box body*
4,1,4,$2,$3,$4,$5,$6,$7,$8,$9,$2,$3,0*
0 Add four circle primitives for the rounded corners*
1,1,$1+$1,$2,$3*
1,1,$1+$1,$4,$5*
1,1,$1+$1,$6,$7*
1,1,$1+$1,$8,$9*
0 Add four rect primitives between the rounded corners*
20,1,$1+$1,$2,$3,$4,$5,0*
20,1,$1+$1,$4,$5,$6,$7,0*
20,1,$1+$1,$6,$7,$8,$9,0*
20,1,$1+$1,$8,$9,$2,$3,0*%
%AMRotRect*
0 Rectangle, with rotation*
0 The origin of the aperture is its center*
0 $1 length*
0 $2 width*
0 $3 Rotation angle, in degrees counterclockwise*
0 Add horizontal line*
21,1,$1,$2,0,0,$3*%
G04 Aperture macros list end*
%ADD10C,0.010000*%
%ADD11RotRect,2.000000X1.100000X315.000000*%
%ADD12RoundRect,0.135000X-0.135000X-0.185000X0.135000X-0.185000X0.135000X0.185000X-0.135000X0.185000X0*%
%ADD13R,2.000000X1.100000*%
%ADD14R,0.889000X0.812800*%
%ADD15RoundRect,0.140000X0.140000X0.170000X-0.140000X0.170000X-0.140000X-0.170000X0.140000X-0.170000X0*%
%ADD16C,2.200000*%
%ADD17RoundRect,0.140000X-0.170000X0.140000X-0.170000X-0.140000X0.170000X-0.140000X0.170000X0.140000X0*%
%ADD18RoundRect,0.125000X-0.138852X-0.370095X0.333138X0.212765X0.138852X0.370095X-0.333138X-0.212765X0*%
%ADD19RotRect,2.000000X1.100000X45.000000*%
%ADD20RoundRect,0.140000X-0.140000X-0.170000X0.140000X-0.170000X0.140000X0.170000X-0.140000X0.170000X0*%
%ADD21C,1.500000*%
G04 APERTURE END LIST*
D10*
%TO.C,MT1*%
X124895000Y-108205000D02*
X124320000Y-108205000D01*
X124320000Y-107855000D01*
X124895000Y-107855000D01*
X124895000Y-108205000D01*
G36*
X124895000Y-108205000D02*
G01*
X124320000Y-108205000D01*
X124320000Y-107855000D01*
X124895000Y-107855000D01*
X124895000Y-108205000D01*
G37*
X124895000Y-108705000D02*
X124320000Y-108705000D01*
X124320000Y-108355000D01*
X124895000Y-108355000D01*
X124895000Y-108705000D01*
G36*
X124895000Y-108705000D02*
G01*
X124320000Y-108705000D01*
X124320000Y-108355000D01*
X124895000Y-108355000D01*
X124895000Y-108705000D01*
G37*
X124895000Y-109205000D02*
X124320000Y-109205000D01*
X124320000Y-108855000D01*
X124895000Y-108855000D01*
X124895000Y-109205000D01*
G36*
X124895000Y-109205000D02*
G01*
X124320000Y-109205000D01*
X124320000Y-108855000D01*
X124895000Y-108855000D01*
X124895000Y-109205000D01*
G37*
X124895000Y-109705000D02*
X124320000Y-109705000D01*
X124320000Y-109355000D01*
X124895000Y-109355000D01*
X124895000Y-109705000D01*
G36*
X124895000Y-109705000D02*
G01*
X124320000Y-109705000D01*
X124320000Y-109355000D01*
X124895000Y-109355000D01*
X124895000Y-109705000D01*
G37*
X125445000Y-108155000D02*
X125095000Y-108155000D01*
X125095000Y-107580000D01*
X125445000Y-107580000D01*
X125445000Y-108155000D01*
G36*
X125445000Y-108155000D02*
G01*
X125095000Y-108155000D01*
X125095000Y-107580000D01*
X125445000Y-107580000D01*
X125445000Y-108155000D01*
G37*
X125445000Y-109980000D02*
X125095000Y-109980000D01*
X125095000Y-109405000D01*
X125445000Y-109405000D01*
X125445000Y-109980000D01*
G36*
X125445000Y-109980000D02*
G01*
X125095000Y-109980000D01*
X125095000Y-109405000D01*
X125445000Y-109405000D01*
X125445000Y-109980000D01*
G37*
X125945000Y-108155000D02*
X125595000Y-108155000D01*
X125595000Y-107580000D01*
X125945000Y-107580000D01*
X125945000Y-108155000D01*
G36*
X125945000Y-108155000D02*
G01*
X125595000Y-108155000D01*
X125595000Y-107580000D01*
X125945000Y-107580000D01*
X125945000Y-108155000D01*
G37*
X125945000Y-109980000D02*
X125595000Y-109980000D01*
X125595000Y-109405000D01*
X125945000Y-109405000D01*
X125945000Y-109980000D01*
G36*
X125945000Y-109980000D02*
G01*
X125595000Y-109980000D01*
X125595000Y-109405000D01*
X125945000Y-109405000D01*
X125945000Y-109980000D01*
G37*
X126445000Y-108155000D02*
X126095000Y-108155000D01*
X126095000Y-107580000D01*
X126445000Y-107580000D01*
X126445000Y-108155000D01*
G36*
X126445000Y-108155000D02*
G01*
X126095000Y-108155000D01*
X126095000Y-107580000D01*
X126445000Y-107580000D01*
X126445000Y-108155000D01*
G37*
X126445000Y-109980000D02*
X126095000Y-109980000D01*
X126095000Y-109405000D01*
X126445000Y-109405000D01*
X126445000Y-109980000D01*
G36*
X126445000Y-109980000D02*
G01*
X126095000Y-109980000D01*
X126095000Y-109405000D01*
X126445000Y-109405000D01*
X126445000Y-109980000D01*
G37*
X127220000Y-108205000D02*
X126645000Y-108205000D01*
X126645000Y-107855000D01*
X127220000Y-107855000D01*
X127220000Y-108205000D01*
G36*
X127220000Y-108205000D02*
G01*
X126645000Y-108205000D01*
X126645000Y-107855000D01*
X127220000Y-107855000D01*
X127220000Y-108205000D01*
G37*
X127220000Y-108705000D02*
X126645000Y-108705000D01*
X126645000Y-108355000D01*
X127220000Y-108355000D01*
X127220000Y-108705000D01*
G36*
X127220000Y-108705000D02*
G01*
X126645000Y-108705000D01*
X126645000Y-108355000D01*
X127220000Y-108355000D01*
X127220000Y-108705000D01*
G37*
X127220000Y-109205000D02*
X126645000Y-109205000D01*
X126645000Y-108855000D01*
X127220000Y-108855000D01*
X127220000Y-109205000D01*
G36*
X127220000Y-109205000D02*
G01*
X126645000Y-109205000D01*
X126645000Y-108855000D01*
X127220000Y-108855000D01*
X127220000Y-109205000D01*
G37*
X127220000Y-109705000D02*
X126645000Y-109705000D01*
X126645000Y-109355000D01*
X127220000Y-109355000D01*
X127220000Y-109705000D01*
G36*
X127220000Y-109705000D02*
G01*
X126645000Y-109705000D01*
X126645000Y-109355000D01*
X127220000Y-109355000D01*
X127220000Y-109705000D01*
G37*
%TD*%
D11*
%TO.C,QLSP08RGB1*%
X120844975Y-114340560D03*
X117309441Y-110805026D03*
X122117767Y-113067768D03*
X118582233Y-109532234D03*
X123390560Y-111794975D03*
X119855026Y-108259441D03*
%TD*%
D12*
%TO.C,R4*%
X125090000Y-115690000D03*
X126110000Y-115690000D03*
%TD*%
D13*
%TO.C,QLSP08RGB2*%
X128100000Y-104180000D03*
X123100000Y-104180000D03*
X128100000Y-102380000D03*
X123100000Y-102380000D03*
X128100000Y-100580000D03*
X123100000Y-100580000D03*
%TD*%
D12*
%TO.C,R2*%
X125080000Y-113490000D03*
X126100000Y-113490000D03*
%TD*%
D14*
%TO.C,U1*%
X131150001Y-104046502D03*
X131150001Y-106096500D03*
X133040000Y-105071501D03*
%TD*%
D15*
%TO.C,C3*%
X126740000Y-110790000D03*
X125780000Y-110790000D03*
%TD*%
D16*
%TO.C,H1*%
X133410000Y-113200000D03*
%TD*%
D17*
%TO.C,C6*%
X129790000Y-104160000D03*
X129790000Y-105120000D03*
%TD*%
D18*
%TO.C,U7*%
X132464860Y-102402252D03*
X131610000Y-101710000D03*
X130755138Y-101017746D03*
%TD*%
D19*
%TO.C,QLSP08RGB3*%
X134140560Y-110775026D03*
X130605026Y-114310560D03*
X132867768Y-109502234D03*
X129332234Y-113037768D03*
X131594975Y-108229441D03*
X128059441Y-111764975D03*
%TD*%
D20*
%TO.C,C7*%
X133710000Y-106260000D03*
X134670000Y-106260000D03*
%TD*%
%TO.C,C5*%
X123400000Y-106660000D03*
X124360000Y-106660000D03*
%TD*%
D12*
%TO.C,R3*%
X125090000Y-114590000D03*
X126110000Y-114590000D03*
%TD*%
D17*
%TO.C,C4*%
X128270000Y-108780000D03*
X128270000Y-109740000D03*
%TD*%
D21*
%TO.C,Y1*%
X128140000Y-115230000D03*
X123260000Y-115230000D03*
%TD*%
M02*
