%TF.GenerationSoftware,KiCad,Pcbnew,8.0.1*%
%TF.CreationDate,2024-07-23T23:42:04-04:00*%
%TF.ProjectId,PartyTorch-PCB,50617274-7954-46f7-9263-682d5043422e,rev?*%
%TF.SameCoordinates,Original*%
%TF.FileFunction,Copper,L1,Top*%
%TF.FilePolarity,Positive*%
%FSLAX46Y46*%
G04 Gerber Fmt 4.6, Leading zero omitted, Abs format (unit mm)*
G04 Created by KiCad (PCBNEW 8.0.1) date 2024-07-23 23:42:04*
%MOMM*%
%LPD*%
G01*
G04 APERTURE LIST*
G04 Aperture macros list*
%AMRoundRect*
0 Rectangle with rounded corners*
0 $1 Rounding radius*
0 $2 $3 $4 $5 $6 $7 $8 $9 X,Y pos of 4 corners*
0 Add a 4 corners polygon primitive as box body*
4,1,4,$2,$3,$4,$5,$6,$7,$8,$9,$2,$3,0*
0 Add four circle primitives for the rounded corners*
1,1,$1+$1,$2,$3*
1,1,$1+$1,$4,$5*
1,1,$1+$1,$6,$7*
1,1,$1+$1,$8,$9*
0 Add four rect primitives between the rounded corners*
20,1,$1+$1,$2,$3,$4,$5,0*
20,1,$1+$1,$4,$5,$6,$7,0*
20,1,$1+$1,$6,$7,$8,$9,0*
20,1,$1+$1,$8,$9,$2,$3,0*%
%AMRotRect*
0 Rectangle, with rotation*
0 The origin of the aperture is its center*
0 $1 length*
0 $2 width*
0 $3 Rotation angle, in degrees counterclockwise*
0 Add horizontal line*
21,1,$1,$2,0,0,$3*%
G04 Aperture macros list end*
%TA.AperFunction,SMDPad,CuDef*%
%ADD10RotRect,2.000000X1.100000X315.000000*%
%TD*%
%TA.AperFunction,SMDPad,CuDef*%
%ADD11RoundRect,0.135000X-0.135000X-0.185000X0.135000X-0.185000X0.135000X0.185000X-0.135000X0.185000X0*%
%TD*%
%TA.AperFunction,SMDPad,CuDef*%
%ADD12R,2.000000X1.100000*%
%TD*%
%TA.AperFunction,SMDPad,CuDef*%
%ADD13R,0.889000X0.812800*%
%TD*%
%TA.AperFunction,SMDPad,CuDef*%
%ADD14RoundRect,0.140000X0.140000X0.170000X-0.140000X0.170000X-0.140000X-0.170000X0.140000X-0.170000X0*%
%TD*%
%TA.AperFunction,SMDPad,CuDef*%
%ADD15R,0.475000X0.250000*%
%TD*%
%TA.AperFunction,SMDPad,CuDef*%
%ADD16R,0.250000X0.475000*%
%TD*%
%TA.AperFunction,SMDPad,CuDef*%
%ADD17RoundRect,0.140000X-0.170000X0.140000X-0.170000X-0.140000X0.170000X-0.140000X0.170000X0.140000X0*%
%TD*%
%TA.AperFunction,SMDPad,CuDef*%
%ADD18RoundRect,0.125000X-0.138852X-0.370095X0.333138X0.212765X0.138852X0.370095X-0.333138X-0.212765X0*%
%TD*%
%TA.AperFunction,SMDPad,CuDef*%
%ADD19RotRect,2.000000X1.100000X45.000000*%
%TD*%
%TA.AperFunction,SMDPad,CuDef*%
%ADD20RoundRect,0.140000X-0.140000X-0.170000X0.140000X-0.170000X0.140000X0.170000X-0.140000X0.170000X0*%
%TD*%
%TA.AperFunction,ComponentPad*%
%ADD21C,1.500000*%
%TD*%
%TA.AperFunction,ViaPad*%
%ADD22C,0.700000*%
%TD*%
%TA.AperFunction,Conductor*%
%ADD23C,0.200000*%
%TD*%
G04 APERTURE END LIST*
D10*
%TO.P,QLSP08RGB1,1,GND*%
%TO.N,GND*%
X120844975Y-114340560D03*
%TO.P,QLSP08RGB1,2,Blue*%
%TO.N,Blue*%
X117309441Y-110805026D03*
%TO.P,QLSP08RGB1,3,GND*%
%TO.N,GND*%
X122117767Y-113067768D03*
%TO.P,QLSP08RGB1,4,Green*%
%TO.N,Green*%
X118582233Y-109532234D03*
%TO.P,QLSP08RGB1,5,GND*%
%TO.N,GND*%
X123390560Y-111794975D03*
%TO.P,QLSP08RGB1,6,Red*%
%TO.N,Red*%
X119855026Y-108259441D03*
%TD*%
D11*
%TO.P,R4,1*%
%TO.N,Net-(U5-EMITTER)*%
X125090000Y-115690000D03*
%TO.P,R4,2*%
%TO.N,Blue*%
X126110000Y-115690000D03*
%TD*%
D12*
%TO.P,QLSP08RGB2,1,GND*%
%TO.N,GND*%
X128100000Y-104180000D03*
%TO.P,QLSP08RGB2,2,Blue*%
%TO.N,Blue*%
X123100000Y-104180000D03*
%TO.P,QLSP08RGB2,3,GND*%
%TO.N,GND*%
X128100000Y-102380000D03*
%TO.P,QLSP08RGB2,4,Green*%
%TO.N,Green*%
X123100000Y-102380000D03*
%TO.P,QLSP08RGB2,5,GND*%
%TO.N,GND*%
X128100000Y-100580000D03*
%TO.P,QLSP08RGB2,6,Red*%
%TO.N,Red*%
X123100000Y-100580000D03*
%TD*%
D11*
%TO.P,R2,1*%
%TO.N,Net-(U3-EMITTER)*%
X125080000Y-113490000D03*
%TO.P,R2,2*%
%TO.N,Red*%
X126100000Y-113490000D03*
%TD*%
D13*
%TO.P,U1,1,GND*%
%TO.N,GND*%
X131150001Y-104046502D03*
%TO.P,U1,2,VOUT*%
%TO.N,+3V3*%
X131150001Y-106096500D03*
%TO.P,U1,3,VIN*%
%TO.N,+5V*%
X133040000Y-105071501D03*
%TD*%
D14*
%TO.P,C3,1*%
%TO.N,+3V3*%
X126740000Y-110790000D03*
%TO.P,C3,2*%
%TO.N,GND*%
X125780000Y-110790000D03*
%TD*%
D15*
%TO.P,MT1,1,AP_SDO/AP_AD0*%
%TO.N,GND*%
X124607500Y-108030000D03*
%TO.P,MT1,2,RESV*%
%TO.N,unconnected-(MT1-RESV-Pad2)*%
X124607500Y-108530000D03*
%TO.P,MT1,3,RESV__1*%
%TO.N,unconnected-(MT1-RESV__1-Pad3)*%
X124607500Y-109030000D03*
%TO.P,MT1,4,INT1/INT*%
%TO.N,unconnected-(MT1-INT1{slash}INT-Pad4)*%
X124607500Y-109530000D03*
D16*
%TO.P,MT1,5,VDDIO*%
%TO.N,+3V3*%
X125270000Y-109692500D03*
%TO.P,MT1,6,GND*%
%TO.N,GND*%
X125770000Y-109692500D03*
%TO.P,MT1,7,FSYNC*%
%TO.N,unconnected-(MT1-FSYNC-Pad7)*%
X126270000Y-109692500D03*
D15*
%TO.P,MT1,8,VDD*%
%TO.N,+3V3*%
X126932500Y-109530000D03*
%TO.P,MT1,9,INT2*%
%TO.N,unconnected-(MT1-INT2-Pad9)*%
X126932500Y-109030000D03*
%TO.P,MT1,10,RESV__2*%
%TO.N,unconnected-(MT1-RESV__2-Pad10)*%
X126932500Y-108530000D03*
%TO.P,MT1,11,RESV__3*%
%TO.N,unconnected-(MT1-RESV__3-Pad11)*%
X126932500Y-108030000D03*
D16*
%TO.P,MT1,12,AP_CS*%
%TO.N,+3V3*%
X126270000Y-107867500D03*
%TO.P,MT1,13,AP_SCL/AP_SCLK*%
%TO.N,IMU_SCL*%
X125770000Y-107867500D03*
%TO.P,MT1,14,AP_SDA/AP_SDIO/AP_SDI*%
%TO.N,IMU_SDA*%
X125270000Y-107867500D03*
%TD*%
D17*
%TO.P,C6,1*%
%TO.N,GND*%
X129790000Y-104160000D03*
%TO.P,C6,2*%
%TO.N,+5V*%
X129790000Y-105120000D03*
%TD*%
D18*
%TO.P,U7,1,SCK*%
%TO.N,/microcontroller/ICSP_SCK*%
X132464860Y-102402252D03*
%TO.P,U7,2,MOSI*%
%TO.N,/microcontroller/ICSP_MOSI*%
X131610000Y-101710000D03*
%TO.P,U7,3,MISO*%
%TO.N,/microcontroller/ICSP_MISO*%
X130755138Y-101017746D03*
%TD*%
D19*
%TO.P,QLSP08RGB3,1,GND*%
%TO.N,GND*%
X134140560Y-110775026D03*
%TO.P,QLSP08RGB3,2,Blue*%
%TO.N,Blue*%
X130605026Y-114310560D03*
%TO.P,QLSP08RGB3,3,GND*%
%TO.N,GND*%
X132867768Y-109502234D03*
%TO.P,QLSP08RGB3,4,Green*%
%TO.N,Green*%
X129332234Y-113037768D03*
%TO.P,QLSP08RGB3,5,GND*%
%TO.N,GND*%
X131594975Y-108229441D03*
%TO.P,QLSP08RGB3,6,Red*%
%TO.N,Red*%
X128059441Y-111764975D03*
%TD*%
D20*
%TO.P,C7,1*%
%TO.N,+3V3*%
X133710000Y-106260000D03*
%TO.P,C7,2*%
%TO.N,GND*%
X134670000Y-106260000D03*
%TD*%
%TO.P,C5,1*%
%TO.N,+3V3*%
X123400000Y-106660000D03*
%TO.P,C5,2*%
%TO.N,GND*%
X124360000Y-106660000D03*
%TD*%
D11*
%TO.P,R3,1*%
%TO.N,Net-(U4-EMITTER)*%
X125090000Y-114590000D03*
%TO.P,R3,2*%
%TO.N,Green*%
X126110000Y-114590000D03*
%TD*%
D17*
%TO.P,C4,1*%
%TO.N,+3V3*%
X128270000Y-108780000D03*
%TO.P,C4,2*%
%TO.N,GND*%
X128270000Y-109740000D03*
%TD*%
D21*
%TO.P,Y1,1,1*%
%TO.N,/microcontroller/XTAL1*%
X128140000Y-115230000D03*
%TO.P,Y1,2,2*%
%TO.N,/microcontroller/XTAL2*%
X123260000Y-115230000D03*
%TD*%
D22*
%TO.N,GND*%
X131670000Y-112300000D03*
X121520000Y-111680000D03*
X125445025Y-111794975D03*
X127580000Y-110620000D03*
X124400000Y-107560000D03*
X132840000Y-107050000D03*
X126170000Y-103130000D03*
%TO.N,Net-(U3-EMITTER)*%
X124372380Y-113260000D03*
%TO.N,Net-(U4-EMITTER)*%
X124400000Y-114600000D03*
%TO.N,Net-(U5-EMITTER)*%
X127280000Y-113480000D03*
X125377598Y-116277598D03*
X129830000Y-111090000D03*
%TO.N,+5V*%
X128400000Y-106180000D03*
%TO.N,Red*%
X127809620Y-105290002D03*
X127147373Y-106880835D03*
%TO.N,IMU_SCL*%
X125714419Y-106123848D03*
%TO.N,IMU_SDA*%
X124990000Y-105560000D03*
%TO.N,Green*%
X116370000Y-109270000D03*
X119020000Y-115510000D03*
X126170000Y-118230000D03*
X129890000Y-116200000D03*
%TO.N,bluePin*%
X122829257Y-107370000D03*
X118660380Y-114509620D03*
X130900000Y-110010000D03*
X119050000Y-112935388D03*
%TO.N,/microcontroller/ICSP_MISO*%
X129680000Y-100050000D03*
%TO.N,/microcontroller/ICSP_MOSI*%
X129660000Y-101410000D03*
%TO.N,/microcontroller/ICSP_SCK*%
X131285548Y-102826645D03*
%TD*%
D23*
%TO.N,GND*%
X132890000Y-107100000D02*
X132840000Y-107050000D01*
X134290000Y-104870000D02*
X134670000Y-105250000D01*
X127659398Y-110540602D02*
X127859398Y-110540602D01*
X123390560Y-111794975D02*
X125445025Y-111794975D01*
X124400000Y-106700000D02*
X124360000Y-106660000D01*
X134670000Y-106940000D02*
X134510000Y-107100000D01*
X124400000Y-107822500D02*
X124607500Y-108030000D01*
X134290000Y-104870000D02*
X133610000Y-104190000D01*
X131660559Y-108229441D02*
X132840000Y-107050000D01*
X134670000Y-105250000D02*
X134670000Y-106260000D01*
X123390560Y-111794975D02*
X120844975Y-114340560D01*
X131670000Y-111920000D02*
X131670000Y-112300000D01*
X131594975Y-108229441D02*
X131660559Y-108229441D01*
X127580000Y-110620000D02*
X127580000Y-110100000D01*
X134670000Y-106260000D02*
X134670000Y-106940000D01*
X131594975Y-108229441D02*
X134140560Y-110775026D01*
X127580000Y-110100000D02*
X128020000Y-109660000D01*
X124400000Y-107560000D02*
X124400000Y-107822500D01*
X131594975Y-108229441D02*
X132030559Y-108229441D01*
X134140560Y-110775026D02*
X132814974Y-110775026D01*
X125780000Y-109702500D02*
X125770000Y-109692500D01*
X125790000Y-111450000D02*
X125790000Y-110810000D01*
X132814974Y-110775026D02*
X131670000Y-111920000D01*
X134140560Y-110775026D02*
X134140560Y-110849440D01*
X121520000Y-112470001D02*
X122117767Y-113067768D01*
X126920000Y-102380000D02*
X126170000Y-103130000D01*
X125540000Y-111700000D02*
X125790000Y-111450000D01*
X124400000Y-107560000D02*
X124400000Y-106700000D01*
X128290000Y-104190000D02*
X128290000Y-100590000D01*
X125780000Y-110790000D02*
X125780000Y-109702500D01*
X125445025Y-111794975D02*
X125540000Y-111700000D01*
X134510000Y-107100000D02*
X132890000Y-107100000D01*
X121520000Y-111680000D02*
X121520000Y-112470001D01*
X127580000Y-110620000D02*
X127659398Y-110540602D01*
X125770000Y-110790000D02*
X125790000Y-110810000D01*
X133610000Y-104190000D02*
X128290000Y-104190000D01*
X128100000Y-102380000D02*
X126920000Y-102380000D01*
%TO.N,Net-(U3-EMITTER)*%
X124372380Y-113260000D02*
X124532380Y-113420000D01*
X124532380Y-113420000D02*
X125050000Y-113420000D01*
%TO.N,Net-(U4-EMITTER)*%
X124400000Y-114600000D02*
X124410000Y-114590000D01*
X124410000Y-114590000D02*
X125090000Y-114590000D01*
%TO.N,Net-(U5-EMITTER)*%
X127546498Y-113480000D02*
X127280000Y-113480000D01*
X129830000Y-111196498D02*
X127546498Y-113480000D01*
X125090000Y-115990000D02*
X125090000Y-115690000D01*
X129830000Y-111090000D02*
X129830000Y-111196498D01*
X125377598Y-116277598D02*
X125090000Y-115990000D01*
%TO.N,+5V*%
X128609239Y-106180000D02*
X128760000Y-106029239D01*
X128760000Y-105440000D02*
X129090000Y-105110000D01*
X128760000Y-106029239D02*
X128760000Y-105440000D01*
X129090000Y-105110000D02*
X133040000Y-105110000D01*
X128400000Y-106180000D02*
X128609239Y-106180000D01*
%TO.N,+3V3*%
X131275002Y-106260000D02*
X130855002Y-105840000D01*
X128260000Y-108700000D02*
X128260000Y-108260000D01*
X126270000Y-106519263D02*
X126350000Y-106439263D01*
X125007500Y-109955000D02*
X123765000Y-109955000D01*
X126910000Y-109552500D02*
X126932500Y-109530000D01*
X126532500Y-107605000D02*
X126270000Y-107867500D01*
X129930000Y-105840000D02*
X128940000Y-106830000D01*
X126812889Y-105797111D02*
X126982889Y-105797111D01*
X126350000Y-106439263D02*
X126350000Y-106260000D01*
X123400000Y-106190000D02*
X123400000Y-106660000D01*
X126932500Y-109530000D02*
X127430000Y-109530000D01*
X123530000Y-109720000D02*
X123530000Y-106790000D01*
X126982889Y-105797111D02*
X125785777Y-104600000D01*
X130855002Y-105840000D02*
X129930000Y-105840000D01*
X125270000Y-109692500D02*
X125007500Y-109955000D01*
X126350000Y-106260000D02*
X126812889Y-105797111D01*
X128940000Y-106830000D02*
X128015778Y-106830000D01*
X127605000Y-107605000D02*
X126532500Y-107605000D01*
X133710000Y-106260000D02*
X131275002Y-106260000D01*
X128260000Y-108260000D02*
X127605000Y-107605000D01*
X128015778Y-106830000D02*
X126982889Y-105797111D01*
X127430000Y-109530000D02*
X128260000Y-108700000D01*
X123765000Y-109955000D02*
X123530000Y-109720000D01*
X126910000Y-110650000D02*
X126910000Y-109552500D01*
X124990000Y-104600000D02*
X123400000Y-106190000D01*
X128270000Y-108780000D02*
X128470402Y-108780000D01*
X126270000Y-107867500D02*
X126270000Y-107390000D01*
X126750000Y-110810000D02*
X126910000Y-110650000D01*
X125785777Y-104600000D02*
X124990000Y-104600000D01*
X123530000Y-106790000D02*
X123400000Y-106660000D01*
X126270000Y-107390000D02*
X126270000Y-106519263D01*
%TO.N,Red*%
X126404416Y-113420000D02*
X128059441Y-111764975D01*
X127130002Y-105290002D02*
X125410000Y-103570000D01*
X125410000Y-101760000D02*
X124240000Y-100590000D01*
X124240000Y-100590000D02*
X122410000Y-100590000D01*
X127809620Y-105290002D02*
X127130002Y-105290002D01*
X126070000Y-113420000D02*
X126404416Y-113420000D01*
X129890000Y-109269909D02*
X129890000Y-110010000D01*
X122410000Y-100590000D02*
X121580000Y-101420000D01*
X127166538Y-106900000D02*
X127520091Y-106900000D01*
X121580000Y-101420000D02*
X121580000Y-103084314D01*
X121580000Y-103084314D02*
X120460000Y-104204315D01*
X120460000Y-107654467D02*
X119855026Y-108259441D01*
X125410000Y-103570000D02*
X125410000Y-101760000D01*
X127520091Y-106900000D02*
X129890000Y-109269909D01*
X129890000Y-110010000D02*
X128135025Y-111764975D01*
X128135025Y-111764975D02*
X128059441Y-111764975D01*
X120460000Y-104204315D02*
X120460000Y-107654467D01*
X127147373Y-106880835D02*
X127166538Y-106900000D01*
%TO.N,IMU_SCL*%
X125630000Y-106208267D02*
X125630000Y-107330000D01*
X125714419Y-106123848D02*
X125630000Y-106208267D01*
X125630000Y-107330000D02*
X125770000Y-107470000D01*
X125770000Y-107470000D02*
X125770000Y-107867500D01*
%TO.N,IMU_SDA*%
X125050000Y-107647500D02*
X125270000Y-107867500D01*
X125050000Y-105620000D02*
X125050000Y-107647500D01*
X124990000Y-105560000D02*
X125050000Y-105620000D01*
%TO.N,Green*%
X122840000Y-102390000D02*
X120860000Y-104370000D01*
X119448629Y-115510000D02*
X119020000Y-115510000D01*
X127230000Y-116360000D02*
X126800000Y-115930000D01*
X121251042Y-107698958D02*
X121251042Y-108918958D01*
X121628629Y-117690000D02*
X119448629Y-115510000D01*
X117875126Y-108825127D02*
X116814873Y-108825127D01*
X118582233Y-109532234D02*
X117875126Y-108825127D01*
X125120000Y-118230000D02*
X124580000Y-117690000D01*
X128190002Y-114180000D02*
X129332234Y-113037768D01*
X126800000Y-115930000D02*
X126800000Y-114180000D01*
X116814873Y-108825127D02*
X116370000Y-109270000D01*
X123575777Y-102390000D02*
X122840000Y-102390000D01*
X126110000Y-114590000D02*
X126520000Y-114180000D01*
X120860000Y-107307916D02*
X121251042Y-107698958D01*
X126170000Y-118230000D02*
X125120000Y-118230000D01*
X129730000Y-116360000D02*
X127230000Y-116360000D01*
X129890000Y-116200000D02*
X129730000Y-116360000D01*
X120860000Y-104370000D02*
X120860000Y-107307916D01*
X121251042Y-108918958D02*
X119930659Y-110239341D01*
X119930659Y-110239341D02*
X119289340Y-110239341D01*
X119289340Y-110239341D02*
X118582233Y-109532234D01*
X126800000Y-114180000D02*
X128190002Y-114180000D01*
X126520000Y-114180000D02*
X126800000Y-114180000D01*
X124580000Y-117690000D02*
X121628629Y-117690000D01*
%TO.N,Blue*%
X130605026Y-116444974D02*
X130010000Y-117040000D01*
X125030762Y-116890000D02*
X121960000Y-116890000D01*
X130010000Y-117040000D02*
X126110000Y-117040000D01*
X126110000Y-117040000D02*
X125180762Y-117040000D01*
X122490000Y-104190000D02*
X123290000Y-104190000D01*
X121310000Y-105370000D02*
X122490000Y-104190000D01*
X121651042Y-107533272D02*
X121310000Y-107192230D01*
X117309441Y-110805026D02*
X118016548Y-111512133D01*
X121310000Y-107192230D02*
X121310000Y-105370000D01*
X121651042Y-109488958D02*
X121651042Y-107533272D01*
X121960000Y-116890000D02*
X117309441Y-112239441D01*
X118016548Y-111512133D02*
X119627867Y-111512133D01*
X119627867Y-111512133D02*
X121651042Y-109488958D01*
X125180762Y-117040000D02*
X125030762Y-116890000D01*
X130605026Y-114310560D02*
X130605026Y-116444974D01*
X126110000Y-115690000D02*
X126110000Y-117040000D01*
X117309441Y-112239441D02*
X117309441Y-110805026D01*
%TO.N,bluePin*%
X119013934Y-114509620D02*
X121794314Y-117290000D01*
X122829257Y-107370000D02*
X122829257Y-109241518D01*
X118660380Y-114509620D02*
X119013934Y-114509620D01*
X124865076Y-117290000D02*
X125015077Y-117440000D01*
X119135387Y-112935388D02*
X119050000Y-112935388D01*
X122829257Y-109241518D02*
X119135387Y-112935388D01*
X130420250Y-117440000D02*
X132001042Y-115859208D01*
X125015077Y-117440000D02*
X130420250Y-117440000D01*
X130910000Y-110020000D02*
X130900000Y-110010000D01*
X132001042Y-115859208D02*
X132001042Y-113741042D01*
X132001042Y-113741042D02*
X130910000Y-112650000D01*
X121794314Y-117290000D02*
X124865076Y-117290000D01*
X130910000Y-112650000D02*
X130910000Y-110020000D01*
%TO.N,/microcontroller/ICSP_MISO*%
X129680000Y-100050000D02*
X129697393Y-100050000D01*
X129697393Y-100050000D02*
X130555139Y-100907746D01*
%TO.N,/microcontroller/ICSP_MOSI*%
X129660000Y-101410000D02*
X130460000Y-102210000D01*
X130460000Y-102210000D02*
X131080000Y-102210000D01*
X131080000Y-102210000D02*
X131557746Y-101732254D01*
X131557746Y-101732254D02*
X131614862Y-101732254D01*
%TO.N,/microcontroller/ICSP_SCK*%
X132067583Y-102826645D02*
X132264860Y-102629368D01*
X131285548Y-102826645D02*
X132067583Y-102826645D01*
%TD*%
M02*
